<?xml version="1.0" encoding="UTF-8"?>
<svg version="1.1" xmlns="http://www.w3.org/2000/svg" width="44" height="44" viewBox="0 0 142 142">
<defs>
<rect id="path_0" width="43" height="43.58" x="0" y="0"/>
</defs>
<path d="M0 0 C0.53625 0.226875 1.0725 0.45375 1.625 0.6875 C1.14765549 5.55641397 0.15031083 8.55517319 -2.375 12.6875 C-1.27799157 15.9785253 -0.49880142 16.64773288 2.125 18.75 C5.52551458 21.48852916 5.52551458 21.48852916 6.625 23.6875 C6.66522391 26.0204866 6.66820247 28.35456666 6.625 30.6875 C5.305 30.3575 3.985 30.0275 2.625 29.6875 C2.79 30.1825 2.955 30.6775 3.125 31.1875 C4.48692313 37.99711567 3.66569976 42.60610047 0.625 48.6875 C-0.035 48.6875 -0.695 48.6875 -1.375 48.6875 C-1.55675781 47.63949219 -1.55675781 47.63949219 -1.7421875 46.5703125 C-1.90976563 45.66023438 -2.07734375 44.75015625 -2.25 43.8125 C-2.41242188 42.90757813 -2.57484375 42.00265625 -2.7421875 41.0703125 C-3.20544703 38.52244012 -3.20544703 38.52244012 -5.375 36.6875 C-5.024375 37.491875 -4.67375 38.29625 -4.3125 39.125 C-2.93509875 44.35912474 -3.7078484 48.91727449 -4.96484375 54.13671875 C-6.46632937 60.38800201 -6.67433264 65.58125342 -4.375 71.6875 C-1.53130257 75.37662099 1.09505802 77.55501451 5.625 78.6875 C10.01135419 79.19937257 13.38196247 79.4757677 17.1875 77.0625 C19.05299134 73.98038388 19.22785455 72.22927048 18.625 68.6875 C17.10605194 66.58985835 17.10605194 66.58985835 14.625 65.6875 C11.43264728 65.91323891 11.43264728 65.91323891 8.625 66.6875 C7.87072703 71.66656259 7.87072703 71.66656259 7.625 76.6875 C1.12282559 76.19676986 1.12282559 76.19676986 -1.07421875 73.94921875 C-3.33660434 70.01552129 -3.12023095 66.08081391 -2.375 61.6875 C-0.3125 58.5625 -0.3125 58.5625 2.625 56.6875 C6.4375 56.375 6.4375 56.375 9.625 56.6875 C9.13 55.594375 8.635 54.50125 8.125 53.375 C6.19239203 48.16897949 5.87535146 43.17930729 6.625 37.6875 C8.98034436 32.79563094 12.3423458 29.87671058 16.625 26.6875 C20.24430698 25.48106434 22.81731005 25.36481441 26.625 25.6875 C30.54880311 27.80031706 33.26641507 29.91512353 35.625 33.6875 C36.99247717 41.06694889 34.94877176 47.8210062 32.5 54.7421875 C31.65822099 57.57567576 31.45190168 59.75564728 31.625 62.6875 C26.06238316 61.37864898 23.5103868 57.29864029 20.625 52.6875 C19.33050505 48.80401516 19.49296688 45.78052664 19.625 41.6875 C20.625 40.6875 20.625 40.6875 24.1875 40.625 C25.321875 40.645625 26.45625 40.66625 27.625 40.6875 C27.667721 39.02138095 27.66563832 37.35367115 27.625 35.6875 C26.04577594 34.10827594 24.43056126 34.479841 22.25 34.4375 C21.45851563 34.41171875 20.66703125 34.3859375 19.8515625 34.359375 C17.09443217 34.76568894 16.28492953 35.48617807 14.625 37.6875 C13.39754586 41.86084406 13.33226179 44.71636904 15.125 48.625 C16.79809203 51.65166995 18.76997325 54.03998212 21.125 56.5625 C25.46445998 61.34151735 28.35979813 66.57024089 28.78125 73.11328125 C28.438062 78.21820272 26.99952992 81.73447924 23.625 85.6875 C20.5994375 87.76757422 19.48024891 87.6875 15.625 87.6875 C15.67140625 88.27917969 15.7178125 88.87085937 15.765625 89.48046875 C16.06528282 96.04083461 16.06528282 96.04083461 13.625 99.625 C12.965 100.305625 12.305 100.98625 11.625 101.6875 C11.625 102.3475 11.625 103.0075 11.625 103.6875 C12.6975 103.64625 13.77 103.605 14.875 103.5625 C18.28247485 103.6760825 19.83239631 103.90023364 22.625 105.6875 C23.12417497 109.08188982 22.69058809 110.57575733 20.9375 113.5625 C16.70855093 118.28318734 10.29554253 121.07270686 4.625 123.6875 C3.965 123.6875 3.305 123.6875 2.625 123.6875 C2.955 124.3475 3.285 125.0075 3.625 125.6875 C3.875 128.6875 3.875 128.6875 3.625 131.6875 C0.0302066 134.08402893 -1.23005219 133.8260371 -5.4375 133.4375 C-6.50097656 133.34984375 -7.56445312 133.2621875 -8.66015625 133.171875 C-11.375 132.6875 -11.375 132.6875 -13.375 130.6875 C-13.50867039 125.21815338 -12.02415223 119.85484366 -10.375 114.6875 C-11.32375 114.254375 -12.2725 113.82125 -13.25 113.375 C-16.375 111.6875 -16.375 111.6875 -18.375 108.6875 C-18.22928264 104.17026169 -17.93807581 101.63266296 -15.625 97.75 C-13.13900263 95.47116908 -11.69389905 94.96407492 -8.375 94.6875 C-8.375 93.6975 -8.375 92.7075 -8.375 91.6875 C-8.973125 92.161875 -9.57125 92.63625 -10.1875 93.125 C-13.47162563 94.73486551 -15.34590949 94.93293634 -18.9375 95.125 C-23.2973911 95.40109707 -23.2973911 95.40109707 -27.0625 97.5625 C-28.63774644 99.69662314 -28.63774644 99.69662314 -28.375 102.6875 C-25.4679357 104.84776765 -25.4679357 104.84776765 -22.375 106.6875 C-21.375 107.6875 -21.375 107.6875 -21.09375 110.05859375 C-21.375 112.6875 -21.375 112.6875 -22.84375 114.34765625 C-34.92374652 122.6875 -34.92374652 122.6875 -41.375 122.6875 C-41.519375 123.821875 -41.66375 124.95625 -41.8125 126.125 C-42.375 129.6875 -42.375 129.6875 -43.375 130.6875 C-45.14848504 130.64939206 -46.92054939 130.53180224 -48.6875 130.375 C-49.65300781 130.29636719 -50.61851563 130.21773437 -51.61328125 130.13671875 C-54.2663406 129.70517444 -56.06863007 129.02968678 -58.375 127.6875 C-58.42884521 125.39608714 -58.46772087 123.10431812 -58.5 120.8125 C-58.52320312 119.53632812 -58.54640625 118.26015625 -58.5703125 116.9453125 C-58.375 113.6875 -58.375 113.6875 -56.375 111.6875 C-53.37579165 112.02074537 -50.63212698 112.60791308 -47.75 113.5 C-45.17810482 113.98207566 -45.17810482 113.98207566 -43.0625 111.75 C-42.505625 111.069375 -41.94875 110.38875 -41.375 109.6875 C-42.695 109.3575 -44.015 109.0275 -45.375 108.6875 C-46.035 106.0475 -46.695 103.4075 -47.375 100.6875 C-48.33404856 104.52369425 -48.29392116 106.01181536 -47.375 109.6875 C-49.5625 110.5 -49.5625 110.5 -52.375 110.6875 C-55.31557235 108.6825643 -56.97452109 107.01835979 -58.015625 103.55859375 C-58.81251858 98.43941866 -58.4387256 95.03601375 -55.375 90.6875 C-48.14931659 83.46181659 -40.07729025 83.29289742 -30.375 82.6875 C-31.055625 81.965625 -31.73625 81.24375 -32.4375 80.5 C-34.375 77.6875 -34.375 77.6875 -34.5625 75.1875 C-33.25970547 72.44477467 -32.47330963 71.91936358 -30 70.3125 C-26.20069171 67.79000843 -24.4032405 65.13772488 -23.375 60.6875 C-22.87588827 57.02570007 -22.56850078 53.37735965 -22.375 49.6875 C-27.10977222 51.75213862 -29.09719474 55.13188948 -31.375 59.6875 C-30.385 60.1825 -30.385 60.1825 -29.375 60.6875 C-30.12755035 64.9458337 -31.88374004 66.61303608 -35.20703125 69.2265625 C-43.96890126 75.13095779 -52.52854244 75.05151829 -62.75805664 74.36474609 C-65.41468603 74.24848527 -67.76333452 74.17904951 -70.375 74.6875 C-72.93310016 77.52475804 -72.93310016 77.52475804 -74.375 80.6875 C-77.125 81.0625 -77.125 81.0625 -79.375 80.6875 C-79.58125 79.90375 -79.7875 79.12 -80 78.3125 C-81.16033975 75.38788079 -81.16033975 75.38788079 -84.375 74.5625 C-85.365 74.27375 -86.355 73.985 -87.375 73.6875 C-89.375 70.6875 -89.375 70.6875 -89.5 68.1875 C-88.375 65.6875 -88.375 65.6875 -86.625 64.9453125 C-85.573125 64.63207031 -85.573125 64.63207031 -84.5 64.3125 C-81.32743372 63.35379233 -81.32743372 63.35379233 -79.1796875 60.94921875 C-78.2565159 58.80341121 -78.2565159 58.80341121 -77.375 55.6875 C-75.125 55.375 -75.125 55.375 -72.375 55.6875 C-69.59528536 58.46721464 -68.375 59.69894966 -68.375 63.6875 C-67.36179687 63.48253906 -66.34859375 63.27757812 -65.3046875 63.06640625 C-63.9531355 62.79421869 -62.60157241 62.52208621 -61.25 62.25 C-60.58484375 62.11529297 -59.9196875 61.98058594 -59.234375 61.84179688 C-55.29153193 61.04936273 -51.34587879 60.32457245 -47.375 59.6875 C-51.55923307 55.34900949 -56.00311326 51.48359247 -61.375 48.6875 C-64.85074644 48.9530489 -64.85074644 48.9530489 -67.375 50.6875 C-70.33164519 52.1658226 -73.11729737 51.74782783 -76.375 51.6875 C-79.375 45.9375 -79.375 45.9375 -79.375 43.6875 C-80.014375 43.501875 -80.65375 43.31625 -81.3125 43.125 C-83.375 41.6875 -83.375 41.6875 -84.125 38.0625 C-84.24875 36.391875 -84.24875 36.391875 -84.375 34.6875 C-83.199375 34.3471875 -83.199375 34.3471875 -82 34 C-78.66969355 32.33484678 -78.59494037 31.10333305 -77.375 27.6875 C-75.6875 25.375 -75.6875 25.375 -73.375 23.6875 C-69.75 23.25 -69.75 23.25 -66.375 23.6875 C-63.87143268 27.44285098 -64.4141408 28.55639414 -65.25 32.875 C-65.45367187 33.96167969 -65.65734375 35.04835937 -65.8671875 36.16796875 C-66.03476563 36.99941406 -66.20234375 37.83085938 -66.375 38.6875 C-64.725 39.0175 -63.075 39.3475 -61.375 39.6875 C-61.33761719 39.00042969 -61.30023438 38.31335937 -61.26171875 37.60546875 C-61.19597656 36.70441406 -61.13023438 35.80335937 -61.0625 34.875 C-61.00449219 33.98167969 -60.94648437 33.08835938 -60.88671875 32.16796875 C-60.31186419 29.38146 -59.5543144 28.44614246 -57.375 26.6875 C-52.72644312 28.32077674 -52.72644312 28.32077674 -50.9375 30.1875 C-46.45918554 34.48668188 -40.35448097 33.86578364 -34.5703125 33.7578125 C-33.84585938 33.73460937 -33.12140625 33.71140625 -32.375 33.6875 C-33.365 33.0275 -34.355 32.3675 -35.375 31.6875 C-36.71290641 30.69362666 -38.04718122 29.6948108 -39.375 28.6875 C-38.715 27.0375 -38.055 25.3875 -37.375 23.6875 C-38.54417969 23.80609375 -39.71335938 23.9246875 -40.91796875 24.046875 C-42.4660492 24.17822728 -44.01423242 24.3083722 -45.5625 24.4375 C-46.33142578 24.51871094 -47.10035156 24.59992187 -47.89257812 24.68359375 C-51.81052575 24.98626782 -53.8497837 24.96952276 -57.38671875 23.0703125 C-60.50242179 19.33636583 -60.05469896 16.30395836 -59.8828125 11.6171875 C-59.13768122 7.31835319 -57.57497719 5.56747947 -54.375 2.6875 C-51.9 3.1825 -51.9 3.1825 -49.375 3.6875 C-49.17583984 4.75291016 -49.17583984 4.75291016 -48.97265625 5.83984375 C-48.79605469 6.75894531 -48.61945312 7.67804687 -48.4375 8.625 C-48.26347656 9.54152344 -48.08945312 10.45804688 -47.91015625 11.40234375 C-47.59785012 13.64039844 -47.59785012 13.64039844 -46.375 14.6875 C-44.18860547 14.76008946 -41.99999611 14.77123783 -39.8125 14.75 C-38.61496094 14.74097656 -37.41742188 14.73195313 -36.18359375 14.72265625 C-34.79333984 14.70525391 -34.79333984 14.70525391 -33.375 14.6875 C-34.3959375 13.3571875 -34.3959375 13.3571875 -35.4375 12 C-37.375 8.6875 -37.375 8.6875 -37.3125 5.9375 C-36.375 3.6875 -36.375 3.6875 -33.375 1.6875 C-28.7288644 1.05308791 -24.26870328 1.61258667 -19.75 2.75 C-14.32321677 4.07130374 -10.21229929 3.62416238 -5.1875 1.0625 C-2.375 -0.3125 -2.375 -0.3125 0 0 Z M-27.375 16.6875 C-27.375 18.0075 -27.375 19.3275 -27.375 20.6875 C-26.385 20.6875 -25.395 20.6875 -24.375 20.6875 C-24.045 19.6975 -23.715 18.7075 -23.375 17.6875 C-24.695 17.3575 -26.015 17.0275 -27.375 16.6875 Z M-3.375 23.6875 C-2.715 24.3475 -2.055 25.0075 -1.375 25.6875 C-1.375 25.0275 -1.375 24.3675 -1.375 23.6875 C-2.035 23.6875 -2.695 23.6875 -3.375 23.6875 Z M-47.375 41.6875 C-47.705 42.3475 -48.035 43.0075 -48.375 43.6875 C-46.02132287 44.3753236 -46.02132287 44.3753236 -43.375 44.6875 C-42.385 44.0275 -41.395 43.3675 -40.375 42.6875 C-42.685 42.3575 -44.995 42.0275 -47.375 41.6875 Z M-12.375 46.6875 C-13.04557887 48.4777061 -13.7113469 50.26971489 -14.375 52.0625 C-14.74625 53.06023438 -15.1175 54.05796875 -15.5 55.0859375 C-16.48126277 57.54598061 -16.48126277 57.54598061 -16.375 59.6875 C-12.82981116 58.28990095 -12.82981116 58.28990095 -9.375 56.6875 C-9.354375 55.40875 -9.33375 54.13 -9.3125 52.8125 C-9.30089844 52.09320313 -9.28929688 51.37390625 -9.27734375 50.6328125 C-9.24850758 48.60564596 -9.24850758 48.60564596 -10.375 46.6875 C-11.035 46.6875 -11.695 46.6875 -12.375 46.6875 Z M-45.375 53.6875 C-45.375 55.3375 -45.375 56.9875 -45.375 58.6875 C-42.405 57.3675 -39.435 56.0475 -36.375 54.6875 C-36.705 54.0275 -37.035 53.3675 -37.375 52.6875 C-40.48757569 52.6875 -42.48265685 52.86111624 -45.375 53.6875 Z M-6.375 103.6875 C-6.705 104.0175 -7.035 104.3475 -7.375 104.6875 C-7.38773699 106.72735647 -7.38773699 106.72735647 -7.125 109.0625 C-7.05796875 109.85398437 -6.9909375 110.64546875 -6.921875 111.4609375 C-6.27861834 114.07991103 -5.53630759 115.09906912 -3.375 116.6875 C-0.72033951 116.45706136 -0.72033951 116.45706136 1.625 115.6875 C1.625 114.6975 1.625 113.7075 1.625 112.6875 C0.84125 112.501875 0.0575 112.31625 -0.75 112.125 C-3.375 110.6875 -3.375 110.6875 -4.6875 107.0625 C-4.914375 105.94875 -5.14125 104.835 -5.375 103.6875 C-5.705 103.6875 -6.035 103.6875 -6.375 103.6875 Z " fill="#0D3571" transform="translate(97.375,4.3125)"/>
</svg>
